<svg width="32" height="32" viewBox="0 0 32 32" fill="none" xmlns="http://www.w3.org/2000/svg">
<rect width="32" height="32" rx="16" fill="#212429"/>
<path fill-rule="evenodd" clip-rule="evenodd" d="M8.41213 9.78253L13.6963 15.069C14.8488 16.2193 16.7328 16.2203 17.8862 15.069L23.1704 9.78253C23.1829 9.77011 23.1925 9.75509 23.1985 9.73854C23.2046 9.72199 23.2069 9.70431 23.2054 9.68676C23.2038 9.66921 23.1984 9.65222 23.1896 9.63699C23.1807 9.62175 23.1686 9.60866 23.1541 9.59862C22.6152 9.22275 21.9594 8.99991 21.253 8.99991H10.3295C9.62311 8.99991 8.96736 9.22278 8.4284 9.59862C8.41392 9.60866 8.40182 9.62175 8.39297 9.63699C8.38411 9.65222 8.37872 9.66921 8.37716 9.68676C8.37561 9.70431 8.37794 9.72199 8.38398 9.73854C8.39002 9.75509 8.39963 9.77011 8.41213 9.78253ZM7 12.3294C6.99957 11.7922 7.13011 11.2631 7.38031 10.7878C7.38904 10.771 7.40161 10.7566 7.41698 10.7456C7.43236 10.7346 7.45011 10.7274 7.46879 10.7246C7.48747 10.7217 7.50656 10.7233 7.5245 10.7293C7.54244 10.7352 7.55873 10.7453 7.57205 10.7587L12.7894 15.976C14.4415 17.6306 17.1401 17.6315 18.7932 15.976L24.0105 10.7587C24.0238 10.7453 24.0401 10.7352 24.0581 10.7293C24.076 10.7233 24.0951 10.7217 24.1138 10.7246C24.1325 10.7274 24.1502 10.7346 24.1656 10.7456C24.181 10.7566 24.1935 10.771 24.2023 10.7878C24.4524 11.2631 24.583 11.7923 24.5826 12.3294V19.2799C24.5826 21.1172 23.088 22.6094 21.253 22.6094H10.3295C8.49457 22.6094 7 21.1172 7 19.2799V12.3294Z" fill="white"/>
</svg>
