<svg width="87" height="22" viewBox="0 0 87 22" fill="none" xmlns="http://www.w3.org/2000/svg">
<g filter="url(#filter0_dd_33_1133)">
<path d="M3.66 16V2H9.72C10.9733 2 12.0533 2.20667 12.96 2.62C13.8667 3.02 14.5667 3.6 15.06 4.36C15.5533 5.12 15.8 6.02667 15.8 7.08C15.8 8.12 15.5533 9.02 15.06 9.78C14.5667 10.54 13.8667 11.1267 12.96 11.54C12.0533 11.94 10.9733 12.14 9.72 12.14H5.46L6.9 10.68V16H3.66ZM6.9 11.04L5.46 9.5H9.54C10.54 9.5 11.2867 9.28667 11.78 8.86C12.2733 8.43333 12.52 7.84 12.52 7.08C12.52 6.30667 12.2733 5.70667 11.78 5.28C11.2867 4.85333 10.54 4.64 9.54 4.64H5.46L6.9 3.1V11.04ZM18.1131 16V2H24.1731C25.4265 2 26.5065 2.20667 27.4131 2.62C28.3198 3.02 29.0198 3.6 29.5131 4.36C30.0065 5.12 30.2531 6.02667 30.2531 7.08C30.2531 8.12 30.0065 9.02 29.5131 9.78C29.0198 10.5267 28.3198 11.1 27.4131 11.5C26.5065 11.9 25.4265 12.1 24.1731 12.1H19.9131L21.3531 10.68V16H18.1131ZM27.0131 16L23.5131 10.92H26.9731L30.5131 16H27.0131ZM21.3531 11.04L19.9131 9.52H23.9931C24.9931 9.52 25.7398 9.30667 26.2331 8.88C26.7265 8.44 26.9731 7.84 26.9731 7.08C26.9731 6.30667 26.7265 5.70667 26.2331 5.28C25.7398 4.85333 24.9931 4.64 23.9931 4.64H19.9131L21.3531 3.1V11.04ZM39.6202 16.24C38.5135 16.24 37.4868 16.06 36.5402 15.7C35.6068 15.34 34.7935 14.8333 34.1002 14.18C33.4202 13.5267 32.8868 12.76 32.5002 11.88C32.1268 11 31.9402 10.04 31.9402 9C31.9402 7.96 32.1268 7 32.5002 6.12C32.8868 5.24 33.4268 4.47333 34.1202 3.82C34.8135 3.16667 35.6268 2.66 36.5602 2.3C37.4935 1.94 38.5068 1.76 39.6002 1.76C40.7068 1.76 41.7202 1.94 42.6402 2.3C43.5735 2.66 44.3802 3.16667 45.0602 3.82C45.7535 4.47333 46.2935 5.24 46.6802 6.12C47.0668 6.98667 47.2602 7.94667 47.2602 9C47.2602 10.04 47.0668 11.0067 46.6802 11.9C46.2935 12.78 45.7535 13.5467 45.0602 14.2C44.3802 14.84 43.5735 15.34 42.6402 15.7C41.7202 16.06 40.7135 16.24 39.6202 16.24ZM39.6002 13.48C40.2268 13.48 40.8002 13.3733 41.3202 13.16C41.8535 12.9467 42.3202 12.64 42.7202 12.24C43.1202 11.84 43.4268 11.3667 43.6402 10.82C43.8668 10.2733 43.9802 9.66667 43.9802 9C43.9802 8.33333 43.8668 7.72667 43.6402 7.18C43.4268 6.63333 43.1202 6.16 42.7202 5.76C42.3335 5.36 41.8735 5.05333 41.3402 4.84C40.8068 4.62667 40.2268 4.52 39.6002 4.52C38.9735 4.52 38.3935 4.62667 37.8602 4.84C37.3402 5.05333 36.8802 5.36 36.4802 5.76C36.0802 6.16 35.7668 6.63333 35.5402 7.18C35.3268 7.72667 35.2202 8.33333 35.2202 9C35.2202 9.65333 35.3268 10.26 35.5402 10.82C35.7668 11.3667 36.0735 11.84 36.4602 12.24C36.8602 12.64 37.3268 12.9467 37.8602 13.16C38.3935 13.3733 38.9735 13.48 39.6002 13.48Z" fill="url(#paint0_linear_33_1133)"/>
<path d="M57.1552 16L53.5552 10.9L56.0952 9.4L60.8352 16H57.1552ZM49.5352 16V5.24H52.6552V16H49.5352ZM51.7352 11.92V9.42H55.4952V11.92H51.7352ZM56.3952 10.98L53.4752 10.66L57.2552 5.24H60.5752L56.3952 10.98ZM68.6119 16V13.9L68.4119 13.44V9.68C68.4119 9.01333 68.2052 8.49333 67.7919 8.12C67.3919 7.74667 66.7719 7.56 65.9319 7.56C65.3585 7.56 64.7919 7.65333 64.2319 7.84C63.6852 8.01333 63.2185 8.25333 62.8319 8.56L61.7119 6.38C62.2985 5.96667 63.0052 5.64667 63.8319 5.42C64.6585 5.19333 65.4985 5.08 66.3519 5.08C67.9919 5.08 69.2652 5.46667 70.1719 6.24C71.0785 7.01333 71.5319 8.22 71.5319 9.86V16H68.6119ZM65.3319 16.16C64.4919 16.16 63.7719 16.02 63.1719 15.74C62.5719 15.4467 62.1119 15.0533 61.7919 14.56C61.4719 14.0667 61.3119 13.5133 61.3119 12.9C61.3119 12.26 61.4652 11.7 61.7719 11.22C62.0919 10.74 62.5919 10.3667 63.2719 10.1C63.9519 9.82 64.8385 9.68 65.9319 9.68H68.7919V11.5H66.2719C65.5385 11.5 65.0319 11.62 64.7519 11.86C64.4852 12.1 64.3519 12.4 64.3519 12.76C64.3519 13.16 64.5052 13.48 64.8119 13.72C65.1319 13.9467 65.5652 14.06 66.1119 14.06C66.6319 14.06 67.0985 13.94 67.5119 13.7C67.9252 13.4467 68.2252 13.08 68.4119 12.6L68.8919 14.04C68.6652 14.7333 68.2519 15.26 67.6519 15.62C67.0519 15.98 66.2785 16.16 65.3319 16.16ZM76.5422 16V7.08L77.2422 7.8H72.9022V5.24H83.2822V7.8H78.9422L79.6422 7.08V16H76.5422Z" fill="#212429"/>
</g>
<defs>
<filter id="filter0_dd_33_1133" x="0.660034" y="0.76001" width="85.6222" height="20.48" filterUnits="userSpaceOnUse" color-interpolation-filters="sRGB">
<feFlood flood-opacity="0" result="BackgroundImageFix"/>
<feColorMatrix in="SourceAlpha" type="matrix" values="0 0 0 0 0 0 0 0 0 0 0 0 0 0 0 0 0 0 127 0" result="hardAlpha"/>
<feMorphology radius="1" operator="erode" in="SourceAlpha" result="effect1_dropShadow_33_1133"/>
<feOffset dy="2"/>
<feGaussianBlur stdDeviation="2"/>
<feColorMatrix type="matrix" values="0 0 0 0 0.0392157 0 0 0 0 0.27451 0 0 0 0 0.321569 0 0 0 0.12 0"/>
<feBlend mode="normal" in2="BackgroundImageFix" result="effect1_dropShadow_33_1133"/>
<feColorMatrix in="SourceAlpha" type="matrix" values="0 0 0 0 0 0 0 0 0 0 0 0 0 0 0 0 0 0 127 0" result="hardAlpha"/>
<feOffset/>
<feGaussianBlur stdDeviation="0.5"/>
<feColorMatrix type="matrix" values="0 0 0 0 0 0 0 0 0 0.733333 0 0 0 0 1 0 0 0 0.24 0"/>
<feBlend mode="normal" in2="effect1_dropShadow_33_1133" result="effect2_dropShadow_33_1133"/>
<feBlend mode="normal" in="SourceGraphic" in2="effect2_dropShadow_33_1133" result="shape"/>
</filter>
<linearGradient id="paint0_linear_33_1133" x1="-39" y1="9" x2="-17.3252" y2="64.5416" gradientUnits="userSpaceOnUse">
<stop stop-color="#00FFAA"/>
<stop offset="0.530854" stop-color="#00BBFF"/>
<stop offset="1" stop-color="#4579F5"/>
</linearGradient>
</defs>
</svg>
